#!OML:ASF F:\VICON\USERDATA\INSTALL\rory3\rory3.ASF
:FULLY-SPECIFIED
:DEGREES
3060
root 0.325517 18.902 4.96164 7.97737 -58.0326 14.1692
lowerback 12.9912 -4.60132 1.44604
upperback 5.85455 -5.98 3.51347
thorax -0.857689 -3.07231 3.64808
lowerneck -12.8393 -4.73024 -7.07007
upperneck 22.6172 -7.33541 8.43521
head 9.85929 -3.17445 3.20673
rclavicle 7.71285e-014 -2.3059e-014
rhumerus 24.4633 42.5687 -45.4892
rradius 61.2768
rwrist -61.2093
rhand 4.16069 348.5
rfingers 7.12502
rthumb 29.5691 -759.165
lclavicle 7.71285e-014 -2.3059e-014
lhumerus 62.2007 -49.3319 32.9313
lradius 37.2251
lwrist -38.5431
lhand -46.0576 46.9318
lfingers 7.12502
lthumb -18.8011 76.0432
rfemur -44.5684 33.5243 -10.597
rtibia 23.5876
rfoot -7.85605 -4.25651
rtoes -6.62473
lfemur -9.86072 3.19439 -22.4004
ltibia 18.0092
lfoot -9.58035 22.0474
ltoes -26.1157
3061
root 0.310265 18.9019 4.97276 7.80219 -58.3908 14.5485
lowerback 13.1145 -4.50142 1.07128
upperback 5.82755 -5.88658 3.80881
thorax -0.886261 -3.03963 4.16463
lowerneck -12.8383 -4.77882 -7.31077
upperneck 22.5017 -7.28694 8.25296
head 9.81604 -3.19014 3.1881
rclavicle 3.57812e-014 -2.8625e-014
rhumerus 24.7151 42.3034 -44.5336
rradius 61.3618
rwrist -60.8712
rhand 3.67502 348.694
rfingers 7.12502
rthumb 29.1054 -759.052
lclavicle 3.57812e-014 -2.8625e-014
lhumerus 62.4446 -48.9317 33.5057
lradius 36.9438
lwrist -38.3368
lhand -45.4758 46.5166
lfingers 7.12502
lthumb -18.2415 75.6813
rfemur -44.8682 33.5993 -10.9499
rtibia 23.6277
rfoot -7.87677 -4.10762
rtoes -6.33212
lfemur -9.7465 3.1143 -22.5667
ltibia 17.6801
lfoot -9.33381 22.0968
ltoes -26.3531
3062
root 0.294424 18.9016 4.98403 7.6252 -58.7206 14.9054
lowerback 13.1547 -4.49828 0.958628
upperback 5.85303 -5.89694 3.86806
thorax -0.862235 -3.04952 4.29273
lowerneck -12.8692 -4.77096 -7.24747
upperneck 22.4044 -7.23941 8.10264
head 9.77475 -3.1776 3.12894
rclavicle 1.15295e-013 -5.56597e-014
rhumerus 24.7997 41.8791 -44.2532
rradius 61.4844
rwrist -59.6547
rhand 2.48666 348.423
rfingers 7.12502
rthumb 27.9699 -759.513
lclavicle 1.15295e-013 -5.56597e-014
lhumerus 62.8495 -48.6097 33.367
lradius 36.7759
lwrist -37.3624
lhand -45.2697 45.5543
lfingers 7.12502
lthumb -18.0431 74.7374
rfemur -45.1705 33.6775 -11.2742
rtibia 23.7314
rfoot -7.96627 -3.99499
rtoes -6.04201
lfemur -9.53783 2.88206 -22.7046
ltibia 17.2346
lfoot -9.14801 22.2723
ltoes -26.5546
3063
root 0.27685 18.9043 5.00092 7.35195 -59.0936 15.3266
lowerback 13.1339 -4.50038 0.971332
upperback 5.91852 -5.9049 3.79974
thorax -0.790726 -3.05411 4.20951
lowerneck -13.0303 -4.72808 -7.05657
upperneck 22.4514 -7.18901 7.99082
head 9.80575 -3.14554 3.06169
rclavicle 1.98785e-014 7.95139e-016
rhumerus 24.7031 41.2608 -44.4069
rradius 61.5926
rwrist -57.6034
rhand 0.288423 347.629
rfingers 7.12502
rthumb 25.8666 -760.632
lclavicle 1.98785e-014 7.95139e-016
lhumerus 63.3662 -48.3857 32.9999
lradius 36.5927
lwrist -35.9646
lhand -45.7242 44.7399
lfingers 7.12502
lthumb -18.4804 73.882
rfemur -45.4314 33.767 -11.6008
rtibia 23.8414
rfoot -8.02366 -3.81731
rtoes -6.10214
lfemur -9.26565 2.74743 -22.9284
ltibia 16.8195
lfoot -9.00488 22.516
ltoes -27.069
3064
root 0.260348 18.8982 5.01472 7.31381 -59.3953 15.5223
lowerback 13.102 -4.53613 1.11246
upperback 5.94296 -5.93899 3.76277
thorax -0.764062 -3.06843 4.09266
lowerneck -13.0984 -4.66715 -6.99408
upperneck 22.4076 -7.10934 7.99095
head 9.79378 -3.10222 3.06015
rclavicle 2.22639e-014 -5.32743e-014
rhumerus 24.5766 40.6897 -44.6179
rradius 61.7622
rwrist -54.9187
rhand -1.78232 347.701
rfingers 7.12502
rthumb 23.8822 -760.834
lclavicle 2.22639e-014 -5.32743e-014
lhumerus 63.9646 -48.2984 32.3701
lradius 36.5862
lwrist -33.6462
lhand -46.5473 43.8529
lfingers 7.12502
lthumb -19.272 72.918
rfemur -45.707 33.7987 -11.803
rtibia 23.927
rfoot -8.05549 -3.65532
rtoes -6.15269
lfemur -9.09595 2.23186 -22.8812
ltibia 16.4705
lfoot -10.2063 22.5495
ltoes -24.4044
3065
root 0.241536 18.8972 5.02381 7.27087 -59.6574 15.6774
lowerback 13.1456 -4.55072 1.18779
upperback 5.94443 -5.94858 3.78901
thorax -0.789723 -3.07255 4.08374
lowerneck -13.0015 -4.63693 -7.08745
upperneck 22.1866 -7.05901 8.10863
head 9.70096 -3.07814 3.12319
rclavicle -9.38264e-014 4.45278e-014
rhumerus 24.3948 40.1402 -44.7627
rradius 62.0156
rwrist -51.6647
rhand -3.54475 348.205
rfingers 7.12502
rthumb 22.1911 -760.541
lclavicle -9.38264e-014 4.45278e-014
lhumerus 64.4557 -48.1842 31.9646
lradius 36.6349
lwrist -31.0673
lhand -46.1778 42.7061
lfingers 7.12502
lthumb -18.9167 71.8063
rfemur -45.8833 33.7864 -11.8812
rtibia 23.982
rfoot -8.03519 -3.46863
rtoes -5.69993
lfemur -8.92347 2.2058 -22.8853
ltibia 16.15
lfoot -9.92484 22.5461
ltoes -24.5895
3066
root 0.22152 18.8989 5.03193 7.26079 -59.9141 15.7559
lowerback 13.1783 -4.556 1.26224
upperback 5.98608 -5.94959 3.828
thorax -0.766152 -3.07415 4.08418
lowerneck -12.9952 -4.60718 -6.96875
upperneck 22.0036 -6.99986 8.00588
head 9.62173 -3.05228 3.07285
rclavicle -5.08889e-014 -2.22639e-014
rhumerus 24.2186 39.5111 -45.0093
rradius 62.2828
rwrist -47.7708
rhand -5.96507 348.312
rfingers 7.12502
rthumb 19.8659 -760.692
lclavicle -5.08889e-014 -2.22639e-014
lhumerus 64.5936 -47.8678 32.0247
lradius 36.6576
lwrist -28.8965
lhand -44.876 39.5798
lfingers 7.12502
lthumb -17.6643 68.7974
rfemur -46.0639 33.9176 -11.9818
rtibia 24.0498
rfoot -8.09868 -3.37979
rtoes -5.26709
lfemur -8.71061 2.17443 -22.8464
ltibia 15.821
lfoot -9.48123 22.5553
ltoes -24.7862
3067
root 0.19832 18.9046 5.04063 7.06675 -60.2728 15.9955
lowerback 13.2347 -4.56465 1.17762
upperback 6.02144 -5.97288 3.85642
thorax -0.745753 -3.08976 4.16711
lowerneck -13.0734 -4.53298 -6.90891
upperneck 22.0258 -6.87726 7.88526
head 9.62686 -3.0014 3.03544
rclavicle 6.59965e-014 -4.92986e-014
rhumerus 24.1318 39.0322 -45.2458
rradius 62.6229
rwrist -43.1711
rhand -8.78284 347.983
rfingers 7.12502
rthumb 17.1555 -761.28
lclavicle 6.59965e-014 -4.92986e-014
lhumerus 64.4415 -47.5847 32.2416
lradius 36.8757
lwrist -26.4149
lhand -42.789 35.045
lfingers 7.12502
lthumb -15.6551 64.4316
rfemur -46.1967 34.0492 -12.0969
rtibia 24.1015
rfoot -8.10875 -3.13188
rtoes -5.30432
lfemur -8.49042 1.9656 -22.8748
ltibia 15.6329
lfoot -9.43266 22.6683
ltoes -24.6069
3068
root 0.178295 18.9049 5.04986 6.90363 -60.6019 16.3035
lowerback 13.2249 -4.56761 1.10598
upperback 5.98538 -5.98378 3.89053
thorax -0.76658 -3.09675 4.24498
lowerneck -13.0367 -4.47582 -7.00509
upperneck 22.0461 -6.77932 7.87818
head 9.62174 -2.9664 3.06281
rclavicle -2.38542e-015 3.10104e-014
rhumerus 23.9795 38.5579 -45.5309
rradius 62.9225
rwrist -37.8808
rhand -11.811 347.543
rfingers 7.12502
rthumb 14.2391 -761.949
lclavicle -2.38542e-015 3.10104e-014
lhumerus 64.4489 -47.4672 32.3063
lradius 37.2218
lwrist -23.1256
lhand -39.705 32.109
lfingers 7.12502
lthumb -12.6834 61.7038
rfemur -46.3916 34.0017 -12.2389
rtibia 24.1455
rfoot -8.10449 -2.81543
rtoes -5.34891
lfemur -8.39927 1.99919 -22.9706
ltibia 15.4547
lfoot -9.23163 22.4601
ltoes -24.0573
3069
root 0.159983 18.8997 5.06209 6.92527 -60.8503 16.4368
lowerback 13.1268 -4.62546 1.17448
upperback 5.97974 -6.05542 3.92233
thorax -0.718653 -3.13223 4.24034
lowerneck -13.0354 -4.33129 -7.02876
upperneck 22.0112 -6.55682 7.82967
head 9.58889 -2.87155 3.07845
rclavicle 3.89618e-014 8.74653e-015
rhumerus 23.9597 38.1345 -45.7958
rradius 63.0865
rwrist -32.1518
rhand -15.2421 347.416
rfingers 7.12502
rthumb 10.9313 -762.28
lclavicle 3.89618e-014 8.74653e-015
lhumerus 64.3284 -47.2319 32.432
lradius 37.6535
lwrist -19.3597
lhand -36.2802 30.7218
lfingers 7.12502
lthumb -9.38017 60.4931
rfemur -46.5641 33.8606 -12.26
rtibia 24.1851
rfoot -8.08291 -2.50327
rtoes -5.25213
lfemur -8.37567 2.19998 -22.9958
ltibia 15.3108
lfoot -8.85987 21.9029
ltoes -22.7113
3070
root 0.14116 18.9008 5.07741 6.95987 -61.0691 16.4599
lowerback 13.1041 -4.67292 1.41306
upperback 5.98709 -6.092 3.89787
thorax -0.723729 -3.14542 4.08497
lowerneck -13.0914 -4.29326 -7.10975
upperneck 22.064 -6.53088 8.00181
head 9.62463 -2.84755 3.15583
rclavicle 7.07673e-014 -2.54444e-014
rhumerus 23.8069 37.7683 -45.9745
rradius 63.3752
rwrist -26.1822
rhand -18.7865 347.207
rfingers 7.12502
rthumb 7.51123 -762.64
lclavicle 7.07673e-014 -2.54444e-014
lhumerus 64.4271 -47.1004 32.2306
lradius 38.146
lwrist -15.7113
lhand -33.1772 29.3242
lfingers 7.12502
lthumb -6.38529 59.2079
rfemur -46.6581 33.8805 -12.267
rtibia 24.2306
rfoot -8.19264 -2.34817
rtoes -4.85493
lfemur -8.28906 2.05412 -22.946
ltibia 15.2557
lfoot -8.68534 21.682
ltoes -21.5515
3071
root 0.120137 18.9076 5.08813 6.89642 -61.3076 16.5129
lowerback 13.1823 -4.68762 1.55789
upperback 5.98391 -6.09196 3.90556
thorax -0.782633 -3.14278 4.02089
lowerneck -13.2158 -4.45952 -7.18118
upperneck 22.2579 -6.78886 8.11475
head 9.74634 -2.95678 3.17424
rclavicle 9.54166e-014 -4.45278e-014
rhumerus 23.7712 37.4379 -46.1214
rradius 63.3563
rwrist -19.8759
rhand -21.6142 347.248
rfingers 7.12502
rthumb 4.78134 -762.679
lclavicle 9.54166e-014 -4.45278e-014
lhumerus 64.608 -47.0643 31.979
lradius 38.4996
lwrist -12.5658
lhand -30.5765 27.7702
lfingers 7.12502
lthumb -3.87416 57.7147
rfemur -46.6978 34.0096 -12.265
rtibia 24.2903
rfoot -8.2989 -2.19754
rtoes -4.80733
lfemur -8.10589 2.04306 -22.9086
ltibia 15.1929
lfoot -8.2712 21.5707
ltoes -21.9015
3072
root 0.0975411 18.91 5.09585 6.71714 -61.5391 16.673
lowerback 13.2579 -4.71586 1.54357
upperback 5.96894 -6.12751 3.96334
thorax -0.828264 -3.16212 4.10216
lowerneck -13.208 -4.53734 -7.20997
upperneck 22.3478 -6.87832 8.0174
head 9.78211 -3.01063 3.13396
rclavicle 9.46215e-014 -5.08889e-014
rhumerus 23.9748 37.2642 -46.1057
rradius 63.0083
rwrist -13.1738
rhand -24.4569 348.311
rfingers 7.12502
rthumb 2.03611 -761.659
lclavicle 9.46215e-014 -5.08889e-014
lhumerus 64.6418 -47.0483 31.8395
lradius 38.913
lwrist -9.52094
lhand -27.344 27.48
lfingers 7.12502
lthumb -0.752366 57.4585
rfemur -46.6953 34.1084 -12.2608
rtibia 24.3481
rfoot -8.2946 -1.98421
rtoes -4.55871
lfemur -7.89411 2.2022 -22.9119
ltibia 15.1128
lfoot -7.9849 21.3231
ltoes -22.0172
